<?xml version="1.0" standalone="no"?>
<!DOCTYPE svg PUBLIC "-//W3C//DTD SVG 20010904//EN"
 "http://www.w3.org/TR/2001/REC-SVG-20010904/DTD/svg10.dtd">
<svg version="1.0" xmlns="http://www.w3.org/2000/svg"
 width="640.000000pt" height="640.000000pt" viewBox="0 0 640.000000 640.000000"
 preserveAspectRatio="xMidYMid meet">

<g transform="translate(0.000000,640.000000) scale(0.100000,-0.100000)"
fill="#000000" stroke="none">
<path d="M1410 5346 c-79 -17 -113 -38 -194 -119 -88 -87 -129 -146 -161 -231
-32 -86 -65 -249 -65 -325 l0 -61 -32 0 c-92 -1 -260 -21 -286 -34 -41 -21
-69 -59 -76 -104 -16 -98 -157 -1477 -158 -1543 -2 -108 18 -143 145 -252 56
-48 111 -94 122 -101 18 -13 19 -18 7 -58 -53 -185 -54 -193 -50 -382 4 -165
7 -188 32 -261 15 -44 39 -100 53 -124 30 -52 292 -330 329 -349 112 -59 319
-65 479 -15 78 24 175 81 237 141 l56 53 42 -45 c23 -25 60 -54 84 -65 l41
-21 176 28 c245 39 249 42 249 220 l0 107 72 -76 c77 -81 141 -128 197 -147
111 -38 345 16 449 103 l32 27 26 -21 c18 -14 41 -21 70 -21 58 0 372 47 407
62 47 19 52 38 57 259 4 154 8 210 19 222 20 25 31 21 31 -10 0 -63 47 -132
166 -247 64 -61 127 -117 140 -124 90 -48 304 -4 434 88 36 25 45 25 83 -2 61
-44 247 -21 356 43 28 16 39 18 66 9 26 -8 63 -6 171 11 131 21 141 24 172 56
l34 33 51 -18 c36 -12 83 -17 152 -17 84 0 114 5 183 28 152 52 255 142 303
264 19 48 23 78 24 173 0 105 -2 120 -28 175 -15 32 -39 74 -53 93 -14 18 -24
34 -23 36 2 1 17 7 32 14 29 13 57 63 57 105 0 48 -31 140 -66 195 -51 79
-177 198 -244 230 -104 49 -250 41 -391 -22 -68 -30 -169 -105 -209 -156 l-31
-39 -51 39 c-27 22 -55 40 -61 40 -6 0 -1 11 11 23 16 17 47 29 102 41 66 14
83 22 105 48 23 27 26 39 22 74 -2 23 -13 55 -24 71 -20 27 -20 39 -15 354 l5
327 -30 65 c-43 91 -225 287 -303 325 -51 25 -64 27 -180 27 -114 -1 -133 -3
-218 -33 -92 -32 -181 -81 -215 -119 -18 -20 -18 -20 -51 13 -30 30 -40 34
-86 34 -59 0 -580 -85 -623 -102 -34 -13 -87 -73 -87 -98 0 -25 2 -25 -57 5
-128 67 -325 50 -505 -43 -4 -2 -17 16 -29 40 -30 58 -197 235 -357 379 -155
139 -130 132 -359 94 -31 -6 -33 -4 -33 22 -1 56 -30 165 -62 230 -18 36 -59
96 -93 132 -33 36 -74 84 -90 105 -30 39 -77 66 -116 66 -11 0 -33 8 -47 19
-67 47 -205 63 -322 37z m245 -105 c22 -10 61 -39 87 -64 39 -39 51 -62 77
-139 17 -51 37 -133 46 -182 17 -101 21 -381 5 -391 -17 -11 -27 35 -34 156
-12 219 -60 423 -119 501 -47 62 -104 88 -194 88 -41 0 -88 -6 -106 -14 -18
-7 -67 -49 -109 -94 -130 -133 -164 -236 -175 -527 -6 -162 -13 -195 -39 -174
-28 23 -14 337 21 474 38 148 155 309 265 363 60 29 213 31 275 3z m-51 -142
c31 -14 70 -86 91 -169 17 -65 45 -223 41 -227 -7 -8 -357 -35 -363 -29 -4 4
-8 64 -8 134 0 99 4 135 17 165 23 51 76 117 102 127 30 13 91 12 120 -1z
m-347 -311 c-2 -13 -4 -5 -4 17 -1 22 1 32 4 23 2 -10 2 -28 0 -40z m10 -120
c-3 -8 -6 -5 -6 6 -1 11 2 17 5 13 3 -3 4 -12 1 -19z m1103 -146 l0 -139 -62
-17 c-34 -9 -99 -35 -145 -57 -70 -33 -100 -56 -181 -137 -103 -103 -140 -162
-181 -292 -71 -223 -65 -515 12 -684 28 -60 97 -142 129 -152 18 -5 15 -12
-35 -63 -60 -61 -90 -114 -101 -175 l-8 -40 -71 75 c-82 86 -136 121 -223 143
-173 44 -386 -7 -553 -133 -30 -23 -64 -41 -75 -41 -12 0 -72 -5 -135 -10 -94
-8 -120 -7 -145 5 -69 33 -72 74 -32 437 63 571 108 992 118 1103 6 66 15 126
20 132 12 15 45 20 174 27 l101 6 6 -60 c8 -74 28 -115 70 -141 34 -21 86 -20
114 2 30 26 55 92 60 163 l6 72 250 26 c138 15 255 25 259 22 4 -3 8 -22 8
-43 0 -54 27 -138 53 -162 33 -31 102 -21 138 19 32 35 50 110 42 170 l-6 42
44 1 c24 0 98 9 164 19 66 9 135 18 153 19 l32 1 0 -138z m2528 -82 c32 -18
49 -38 70 -79 l27 -56 0 -355 c0 -195 3 -360 8 -367 9 -14 -1 -17 -113 -37
-144 -25 -142 -26 -152 11 l-8 32 -64 -48 c-77 -58 -139 -81 -221 -81 -67 0
-110 21 -147 71 -56 75 -47 243 18 338 31 45 92 94 159 125 52 25 214 76 241
76 18 0 19 115 1 150 -11 21 -20 25 -55 24 -57 -1 -94 -30 -106 -81 l-9 -40
-66 -7 c-36 -4 -90 -11 -118 -15 l-53 -7 0 37 c0 105 84 226 194 279 130 62
311 76 394 30z m-696 -186 c-4 -97 -6 -110 -36 -162 -69 -121 -227 -374 -271
-434 -25 -34 -42 -64 -37 -66 5 -1 73 9 150 23 77 14 152 25 166 25 l26 0 0
-109 0 -108 -82 -16 c-96 -19 -428 -73 -505 -83 l-53 -7 6 94 c3 52 7 107 9
123 3 15 60 119 128 230 153 250 180 296 174 302 -3 3 -192 -32 -274 -51 -23
-5 -23 -5 -23 119 l0 124 28 6 c106 22 534 93 572 95 l25 1 -3 -106z m-1649
14 c87 -26 156 -140 160 -264 l2 -46 -120 -39 c-66 -21 -123 -39 -126 -39 -4
0 -12 21 -18 47 -13 51 -67 113 -97 113 -43 -1 -102 -38 -128 -82 -46 -79 -59
-156 -60 -348 0 -146 2 -181 17 -215 37 -82 79 -100 153 -65 52 26 89 75 114
153 l17 52 117 3 c134 3 129 8 101 -103 -56 -215 -249 -356 -490 -357 -99 -1
-152 16 -213 67 -102 86 -152 316 -117 540 38 245 117 385 281 494 129 87 294
123 407 89z m819 -100 c92 -70 105 -152 89 -553 -7 -180 -8 -282 -1 -294 8
-16 4 -20 -33 -30 -58 -15 -155 -31 -188 -31 -22 0 -28 6 -33 30 l-6 30 -61
-45 c-86 -63 -208 -96 -276 -75 -55 18 -88 54 -108 117 -35 109 0 248 81 328
47 46 170 106 284 139 l85 24 -1 69 c0 96 -4 103 -59 103 -38 0 -52 -5 -76
-29 -16 -16 -29 -40 -29 -53 0 -39 -12 -45 -112 -57 -141 -16 -132 -19 -125
39 8 67 36 128 83 180 50 55 97 84 186 115 62 22 88 25 169 23 87 -3 99 -6
131 -30z m2387 -914 c66 -28 103 -81 116 -166 l7 -47 -38 -10 c-72 -19 -177
-41 -179 -39 -1 2 -7 17 -12 33 -13 40 -49 58 -93 45 -61 -17 -80 -37 -80 -80
0 -51 17 -62 145 -89 193 -42 265 -117 265 -274 0 -161 -105 -268 -309 -313
-147 -33 -271 -2 -338 85 -29 38 -53 105 -40 117 2 3 44 15 93 29 49 13 96 26
105 30 10 4 19 -3 27 -20 15 -32 67 -55 122 -55 67 0 122 70 92 117 -12 18
-69 40 -141 53 -195 35 -265 101 -265 250 0 56 6 88 23 127 72 163 340 274
500 207z m-1566 -105 l-5 -112 33 7 c19 4 56 10 82 13 l48 6 -3 -108 -3 -108
-70 -14 c-38 -8 -74 -19 -80 -24 -6 -6 -10 -102 -10 -246 0 -274 -3 -265 91
-245 32 6 59 11 60 9 1 -1 0 -43 -3 -94 l-6 -92 -46 -15 c-86 -27 -140 -36
-207 -36 -86 0 -126 23 -150 86 -15 40 -16 73 -10 323 l7 278 -51 -10 c-28 -5
-53 -7 -56 -5 -3 3 -2 51 2 106 l7 100 51 8 51 9 5 94 5 94 65 18 c36 10 92
29 125 43 33 14 63 25 67 26 3 0 4 -50 1 -111z m822 -24 c20 -10 50 -35 65
-56 48 -67 54 -127 46 -469 -4 -208 -3 -311 4 -315 30 -18 3 -26 -193 -54 -56
-8 -57 -8 -64 18 -10 42 -13 42 -46 11 -76 -72 -217 -114 -303 -90 -54 16
-110 74 -120 126 -10 53 1 174 21 220 45 109 180 188 408 238 26 6 27 8 27 81
0 68 -2 76 -25 91 -48 31 -129 -10 -141 -72 -4 -24 -13 -36 -28 -39 -38 -8
-218 -27 -222 -23 -2 2 1 29 6 60 24 149 124 244 296 282 88 20 217 15 269 -9z
m-2661 -125 c9 -10 -7 -162 -18 -165 -6 -2 -37 -6 -69 -10 -73 -8 -97 -29 -97
-86 l0 -42 38 7 c20 4 61 9 90 13 l52 6 -4 -34 c-3 -19 -5 -68 -5 -109 l-1
-75 -81 -17 c-45 -9 -83 -19 -85 -21 -3 -2 -9 -157 -15 -343 -6 -186 -12 -344
-14 -349 -1 -6 -52 -19 -111 -28 -60 -10 -118 -21 -128 -24 -19 -5 -19 3 -12
332 4 185 10 343 13 351 4 11 -6 12 -46 7 l-51 -6 0 106 0 107 28 6 c62 14 60
12 67 82 4 37 11 81 16 99 25 81 117 157 229 187 51 14 191 18 204 6z m1394
-161 l3 -124 -28 -16 c-15 -9 -50 -20 -78 -23 -64 -9 -117 -44 -140 -93 -23
-46 -33 -179 -34 -420 -1 -171 -1 -173 -23 -178 -50 -11 -243 -43 -246 -40 -2
2 1 153 7 336 6 183 11 390 11 460 l0 128 53 10 c131 25 188 33 193 28 3 -3 8
-33 11 -67 l6 -61 19 33 c27 45 87 106 123 126 30 16 92 31 110 27 6 -1 11
-53 13 -126z m-2218 24 c142 -70 213 -222 227 -483 10 -198 -27 -349 -119
-486 -117 -175 -285 -268 -488 -268 -88 -1 -101 2 -163 32 -77 38 -125 90
-166 177 -47 99 -56 154 -56 340 0 147 3 181 23 250 33 113 76 189 159 275 80
84 155 134 252 168 91 31 263 29 331 -5z m1359 -59 c116 -32 183 -109 216
-250 12 -49 21 -213 13 -215 -2 0 -115 -19 -252 -43 -145 -24 -251 -47 -254
-54 -8 -25 21 -124 45 -152 20 -25 32 -30 67 -30 50 0 104 34 136 85 20 32 26
35 68 35 26 0 78 3 115 7 l68 6 -20 -53 c-41 -109 -117 -187 -239 -247 -66
-33 -85 -38 -167 -41 -89 -4 -95 -3 -154 28 -117 63 -158 131 -182 300 -13 89
-6 158 25 274 29 104 57 154 128 224 62 63 118 98 196 123 71 22 120 23 191 3z"/>
<path d="M4633 3881 c-68 -32 -92 -61 -100 -118 -4 -29 0 -44 17 -65 29 -38
61 -36 110 8 42 38 70 106 70 171 0 42 -15 43 -97 4z"/>
<path d="M3126 3620 c-91 -35 -137 -102 -116 -166 22 -66 76 -68 134 -4 37 41
56 92 56 153 0 43 -5 44 -74 17z"/>
<path d="M4803 2586 c-98 -31 -153 -98 -138 -168 20 -90 135 -61 180 44 15 38
21 139 8 137 -5 0 -27 -6 -50 -13z"/>
<path d="M1214 2636 c-44 -19 -98 -88 -118 -149 -38 -115 -45 -360 -16 -496
23 -101 93 -147 188 -122 83 23 149 113 174 236 15 78 14 293 -2 370 -15 75
-52 140 -90 160 -36 18 -95 19 -136 1z"/>
<path d="M2712 2605 c-26 -19 -67 -88 -76 -130 -4 -16 -9 -38 -12 -47 -7 -23
20 -23 131 -3 44 8 86 14 93 15 28 0 4 114 -34 155 -27 29 -69 33 -102 10z"/>
</g>
</svg>
